# xmcd
#
# Track frame offsets: 
#        150
#        17310
#        31327
#        47534
#        65113
#        80960
#        100651
#        125980
#        146343
#        166340
#        187663
#        205420
#        215741
#        229862
#        248563
#        262512
#        279793
#        302000
#
# Disc length: 4233 seconds
#
# Revision: 0
# Processed by: cddbd v1.5.2PL0 Copyright (c) Steve Scherf et al.
# Submitted via: ExactAudioCopy v0.95b4
#
DISCID=f0108712
DTITLE=Various Artist - Baladas en Inglés (Cantadas En Español)
DYEAR=2000
DGENRE=Ballad
TTITLE0=Indio - La sombra del amor
TTITLE1=Chris de Burgh - La dama de rojo
TTITLE2=Kansas - Polvo en el viento
TTITLE3=Indio - Heridas de amor
TTITLE4=Glenn Medeiros - Nada cambiará mi amor por ti
TTITLE5=Roxette - Un dia sin ti
TTITLE6=Lissette - Eclipse total del amor
TTITLE7=Whitney Houston - Siempre te amare
TTITLE8=Bon Jovi - Como yo nadie te ha amado
TTITLE9=Roxette - No se si es amor
TTITLE10=Scorpions - Vientos de cambio
TTITLE11=Boys II Men - Yesterday
TTITLE12=Air Supply - Sin ti
TTITLE13=Bryan Adams - Todo lo que hago lo hago por ti
TTITLE14=Roxette - Habla el corazón
TTITLE15=Chayanne - Hey tu
TTITLE16=Sonia Silvestre - Mi corazón continuara
TTITLE17=Angelica Vale - Devotamente tuya
EXTD=
EXTT0=
EXTT1=
EXTT2=
EXTT3=
EXTT4=
EXTT5=
EXTT6=
EXTT7=
EXTT8=
EXTT9=
EXTT10=
EXTT11=
EXTT12=
EXTT13=
EXTT14=
EXTT15=
EXTT16=
EXTT17=
PLAYORDER=
